<?xml version="1.0" encoding="UTF-8" ?>
<!DOCTYPE svg PUBLIC "-//W3C//DTD SVG 1.1//EN" "http://www.w3.org/Graphics/SVG/1.1/DTD/svg11.dtd">
<svg width="64pt" height="64pt" viewBox="0 0 64 64" version="1.1" xmlns="http://www.w3.org/2000/svg">
<g id="#008a4eff">
<path fill="#008a4e" opacity="1.00" d=" M 48.15 0.00 L 54.34 0.00 C 54.40 2.13 54.45 4.25 54.50 6.38 C 52.33 6.38 50.16 6.37 47.99 6.37 C 48.05 4.25 48.10 2.12 48.15 0.00 Z" />
<path fill="#008a4e" opacity="1.00" d=" M 39.29 6.39 C 38.98 2.76 43.38 2.11 45.82 0.69 C 45.87 2.58 45.92 4.46 45.97 6.34 C 43.74 6.37 41.52 6.39 39.29 6.39 Z" />
<path fill="#008a4e" opacity="1.00" d=" M 56.58 0.86 C 58.99 2.23 61.10 4.04 62.62 6.37 C 60.58 6.40 58.54 6.39 56.50 6.37 C 56.52 4.53 56.55 2.69 56.58 0.86 Z" />
<path fill="#008a4e" opacity="1.00" d=" M 31.63 14.85 C 33.06 12.39 33.71 7.98 37.40 8.39 C 37.39 10.55 37.37 12.71 37.36 14.88 C 35.45 14.88 33.54 14.87 31.63 14.85 Z" />
<path fill="#008a4e" opacity="1.00" d=" M 39.43 8.51 C 41.60 8.51 43.78 8.53 45.96 8.56 C 45.91 10.65 45.89 12.74 45.89 14.83 C 43.76 14.86 41.63 14.87 39.49 14.89 C 39.48 12.76 39.46 10.64 39.43 8.51 Z" />
<path fill="#008a4e" opacity="1.00" d=" M 48.03 8.53 C 50.18 8.52 52.33 8.51 54.48 8.51 C 54.46 10.64 54.44 12.76 54.43 14.89 C 52.29 14.87 50.16 14.86 48.03 14.84 C 48.04 12.74 48.04 10.64 48.03 8.53 Z" />
<path fill="#008a4e" opacity="1.00" d=" M 56.51 8.52 C 58.83 8.52 61.16 8.52 63.48 8.52 C 63.61 9.26 63.87 10.75 64.00 11.50 L 64.00 14.80 C 61.52 14.85 59.04 14.87 56.56 14.90 C 56.54 12.77 56.53 10.64 56.51 8.52 Z" />
<path fill="#008a4e" opacity="1.00" d=" M 31.08 17.13 C 33.18 17.11 35.27 17.09 37.36 17.08 C 37.37 19.21 37.38 21.34 37.40 23.48 C 35.27 23.45 33.13 23.43 31.00 23.38 C 30.94 21.30 30.97 19.21 31.08 17.13 Z" />
<path fill="#008a4e" opacity="1.00" d=" M 39.50 17.08 C 41.62 17.09 43.75 17.11 45.88 17.13 C 45.89 19.23 45.91 21.32 45.96 23.42 C 43.78 23.44 41.61 23.45 39.43 23.45 C 39.46 21.33 39.48 19.20 39.50 17.08 Z" />
<path fill="#008a4e" opacity="1.00" d=" M 48.03 17.13 C 50.16 17.11 52.30 17.09 54.43 17.08 C 54.44 19.20 54.45 21.33 54.48 23.45 C 52.33 23.45 50.18 23.45 48.03 23.44 C 48.04 21.33 48.04 19.23 48.03 17.13 Z" />
<path fill="#008a4e" opacity="1.00" d=" M 56.56 17.09 C 58.90 17.09 61.24 17.09 63.58 17.09 C 62.77 19.21 62.02 21.38 60.73 23.26 C 59.33 23.45 57.92 23.53 56.50 23.51 C 56.53 21.37 56.55 19.23 56.56 17.09 Z" />
<path fill="#008a4e" opacity="1.00" d=" M 55.72 26.31 C 56.49 25.14 57.48 24.82 58.69 25.34 C 58.60 25.84 58.42 26.83 58.33 27.33 C 57.54 28.36 54.93 27.94 55.72 26.31 Z" />
<path fill="#008a4e" opacity="1.00" d=" M 31.67 25.60 C 33.57 25.59 35.47 25.58 37.37 25.58 C 37.38 27.60 37.40 29.62 37.43 31.64 C 36.87 31.29 35.76 30.58 35.21 30.23 C 32.11 33.51 28.81 36.58 25.68 39.82 C 23.03 42.30 25.27 46.93 22.22 49.20 C 17.18 54.10 12.37 59.23 7.22 64.00 L 5.87 64.00 C 3.77 62.22 1.83 60.26 0.00 58.21 L 0.00 56.75 C 4.79 51.62 9.89 46.79 14.80 41.78 C 17.11 38.81 21.69 40.90 24.19 38.29 C 27.47 35.15 30.55 31.81 33.86 28.71 C 33.13 27.67 32.40 26.64 31.67 25.60 M 20.26 43.71 C 21.40 45.61 23.45 43.27 21.99 42.01 C 20.74 40.59 18.37 42.54 20.26 43.71 Z" />
<path fill="#008a4e" opacity="1.00" d=" M 39.46 25.58 C 41.63 25.59 43.80 25.60 45.97 25.62 C 45.89 28.10 45.86 30.57 45.84 33.05 C 43.68 33.15 41.53 32.91 39.42 32.46 C 39.46 30.16 39.47 27.87 39.46 25.58 Z" />
<path fill="#008a4e" opacity="1.00" d=" M 48.03 25.60 C 50.19 25.59 52.35 25.59 54.52 25.59 C 54.47 27.02 54.42 28.45 54.37 29.89 C 52.31 30.92 50.20 31.83 48.04 32.62 C 48.05 30.28 48.05 27.94 48.03 25.60 Z" />
</g>
</svg>
