<?xml version="1.0" encoding="UTF-8" ?>
<!DOCTYPE svg PUBLIC "-//W3C//DTD SVG 1.1//EN" "http://www.w3.org/Graphics/SVG/1.1/DTD/svg11.dtd">
<svg width="64pt" height="64pt" viewBox="0 0 64 64" version="1.1" xmlns="http://www.w3.org/2000/svg">
<g id="#008a4eff">
<path fill="#008a4e" opacity="1.00" d=" M 4.23 29.19 C 4.89 14.55 19.47 2.31 33.99 4.15 C 36.38 5.02 33.33 6.11 32.53 6.92 C 32.57 7.29 32.65 8.02 32.69 8.39 C 33.37 8.76 34.72 9.49 35.40 9.86 C 34.86 10.38 33.77 11.41 33.23 11.92 C 33.41 12.33 33.76 13.15 33.94 13.56 C 34.72 13.61 36.28 13.73 37.06 13.79 C 36.52 14.40 35.45 15.61 34.91 16.22 C 35.19 16.76 35.74 17.83 36.02 18.37 C 36.65 18.06 37.90 17.45 38.53 17.14 C 38.29 18.40 38.07 19.67 37.75 20.91 C 38.06 21.29 38.68 22.05 38.99 22.43 C 39.57 22.04 40.72 21.25 41.29 20.85 C 41.27 22.10 41.21 23.34 41.13 24.58 C 41.50 24.95 41.87 25.31 42.24 25.68 C 42.97 25.37 44.44 24.76 45.17 24.45 C 45.09 25.20 44.92 26.69 44.84 27.44 C 46.30 28.56 47.92 27.08 49.42 26.84 C 49.38 27.74 49.31 29.54 49.27 30.45 C 50.81 29.92 52.20 29.09 53.36 27.95 C 53.59 29.17 53.81 30.39 54.04 31.61 C 55.18 30.91 56.32 30.19 57.37 29.36 C 58.05 29.36 59.42 29.36 60.11 29.36 C 61.59 44.02 50.13 58.51 35.37 59.88 C 36.04 58.52 37.15 57.59 38.55 57.06 C 38.61 56.69 38.73 55.96 38.80 55.59 C 37.91 54.87 37.02 54.14 36.14 53.41 C 36.86 53.32 38.30 53.13 39.02 53.03 C 38.99 52.36 38.94 51.03 38.91 50.36 C 38.41 50.38 37.40 50.42 36.90 50.44 L 36.69 48.74 C 37.38 48.55 38.75 48.18 39.44 48.00 C 38.43 46.97 37.32 46.09 36.09 45.36 C 35.99 45.06 35.80 44.47 35.71 44.17 L 37.71 43.90 C 37.54 43.32 37.20 42.14 37.03 41.56 C 36.05 41.50 35.07 41.43 34.09 41.35 C 34.52 40.02 35.04 38.72 35.69 37.48 C 34.24 37.42 32.79 37.38 31.35 37.32 C 31.81 36.78 32.75 35.68 33.21 35.13 C 32.90 34.74 32.27 33.96 31.96 33.57 C 30.83 33.78 29.69 33.99 28.56 34.19 C 28.93 33.35 29.68 31.68 30.06 30.84 C 28.48 30.58 26.99 30.83 25.57 31.58 C 25.55 30.64 25.52 28.75 25.51 27.81 C 24.20 28.41 22.90 29.03 21.52 29.45 C 21.49 28.78 21.43 27.43 21.40 26.75 C 20.96 26.58 20.07 26.24 19.63 26.07 C 18.92 26.91 18.19 27.73 17.45 28.55 C 17.28 27.77 16.94 26.22 16.77 25.45 C 16.32 25.40 15.41 25.32 14.95 25.27 C 14.55 25.86 13.74 27.04 13.33 27.63 C 12.49 26.49 11.60 25.39 10.59 24.40 C 10.26 25.33 9.61 27.17 9.28 28.10 C 8.17 27.15 7.06 26.20 5.95 25.24 C 5.39 26.56 4.83 27.89 4.23 29.19 Z" />
<path fill="#008a4e" opacity="1.00" d=" M 37.14 4.23 C 48.47 6.46 58.03 15.85 59.73 27.39 C 57.80 27.04 56.65 25.57 55.89 23.89 C 55.38 24.64 54.35 26.14 53.84 26.89 C 53.30 25.65 52.76 24.41 52.22 23.18 C 51.26 23.98 50.29 24.76 49.31 25.54 C 49.34 24.56 49.39 22.59 49.42 21.61 C 48.14 22.24 46.86 22.86 45.59 23.50 C 45.80 22.55 46.23 20.67 46.45 19.72 C 45.16 19.95 43.88 20.17 42.58 20.38 C 42.95 19.13 43.31 17.89 43.65 16.63 C 42.63 16.80 40.59 17.14 39.58 17.30 C 40.11 16.73 41.17 15.57 41.70 15.00 C 41.51 14.62 41.12 13.86 40.92 13.49 C 40.13 13.49 38.56 13.48 37.77 13.48 C 38.41 12.90 39.68 11.72 40.32 11.14 C 39.27 10.21 37.98 9.57 36.67 9.13 C 37.33 8.75 38.66 8.00 39.32 7.62 C 39.02 6.45 38.22 5.72 36.91 5.41 L 37.14 4.23 Z" />
<path fill="#008a4e" opacity="1.00" d=" M 9.07 30.09 L 9.90 29.75 C 10.12 30.46 10.55 31.89 10.77 32.60 C 11.63 31.49 12.46 30.36 13.30 29.24 C 13.63 30.05 14.30 31.68 14.63 32.49 C 15.55 31.59 16.44 30.64 17.34 29.71 C 17.75 30.50 18.58 32.08 19.00 32.87 C 19.56 32.32 20.69 31.23 21.26 30.68 C 21.37 31.72 21.60 33.79 21.71 34.82 C 22.73 34.08 23.74 33.34 24.76 32.60 C 24.69 33.44 24.57 35.12 24.51 35.96 C 25.81 35.86 27.11 35.75 28.42 35.61 C 27.97 36.35 27.06 37.82 26.61 38.55 C 27.74 38.51 28.86 38.47 29.98 38.41 L 30.82 39.33 C 30.29 39.82 29.22 40.81 28.68 41.30 C 30.08 41.53 31.49 41.74 32.89 42.00 C 32.09 42.99 31.31 43.99 30.56 45.01 C 31.84 45.28 33.12 45.54 34.40 45.83 C 33.73 46.32 32.38 47.30 31.70 47.79 C 32.70 48.80 33.97 49.48 35.12 50.29 C 34.26 50.47 32.54 50.81 31.68 50.99 C 32.49 51.78 34.10 53.35 34.91 54.14 C 34.23 54.28 32.86 54.56 32.18 54.70 C 32.18 55.06 32.17 55.78 32.17 56.14 C 33.60 57.06 34.08 58.42 33.63 60.20 C 26.92 60.23 20.05 58.51 14.76 54.24 C 8.26 49.22 4.11 41.22 3.95 32.99 C 3.85 31.60 4.50 30.62 5.88 30.04 C 6.15 30.78 6.68 32.25 6.95 32.98 C 7.64 32.01 8.35 31.05 9.07 30.09 Z" />
</g>
</svg>
