<?xml version="1.0" encoding="UTF-8" ?>
<!DOCTYPE svg PUBLIC "-//W3C//DTD SVG 1.1//EN" "http://www.w3.org/Graphics/SVG/1.1/DTD/svg11.dtd">
<svg width="64pt" height="64pt" viewBox="0 0 64 64" version="1.1" xmlns="http://www.w3.org/2000/svg">
<g id="#008a4eff">
<path fill="#008a4e" opacity="1.00" d=" M 17.25 2.22 C 23.38 1.10 30.06 2.98 34.41 7.52 C 39.11 12.50 42.44 19.01 42.89 25.92 C 43.26 30.90 44.11 36.04 46.63 40.42 C 51.79 45.55 57.22 50.49 62.10 55.91 C 61.01 58.51 58.52 61.06 55.88 62.07 C 51.50 58.12 47.42 53.81 43.30 49.58 C 38.48 43.18 29.56 43.53 22.41 42.43 C 13.00 40.25 3.03 33.48 2.05 23.10 C 0.67 13.52 7.61 3.73 17.25 2.22 M 14.84 6.30 C 15.55 6.96 16.25 7.63 16.95 8.29 C 17.95 7.21 18.95 6.12 19.94 5.02 C 18.23 5.42 16.54 5.85 14.84 6.30 M 21.88 5.05 C 22.88 6.19 23.88 7.31 24.89 8.43 C 25.53 7.66 26.16 6.89 26.80 6.13 C 25.16 5.76 23.52 5.40 21.88 5.05 M 10.30 9.29 C 11.20 10.25 12.10 11.22 13.00 12.18 C 14.01 11.15 15.02 10.13 16.03 9.10 C 15.44 8.54 14.26 7.42 13.66 6.85 C 12.54 7.67 11.42 8.48 10.30 9.29 M 18.04 9.40 C 19.01 10.35 19.98 11.30 20.95 12.26 C 21.92 11.27 22.90 10.28 23.88 9.29 C 22.92 8.33 21.97 7.38 21.02 6.42 C 20.03 7.41 19.04 8.41 18.04 9.40 M 28.26 6.93 C 27.44 7.74 26.63 8.55 25.81 9.36 C 26.83 10.33 27.86 11.29 28.88 12.27 C 29.80 11.27 30.73 10.28 31.66 9.29 C 30.52 8.50 29.39 7.71 28.26 6.93 M 6.86 13.66 C 7.42 14.26 8.54 15.44 9.10 16.03 C 10.13 15.02 11.15 14.01 12.18 13.01 C 11.22 12.10 10.25 11.20 9.29 10.30 C 8.48 11.42 7.67 12.54 6.86 13.66 M 14.16 13.27 C 15.13 14.22 16.10 15.17 17.07 16.12 C 18.05 15.14 19.03 14.17 20.01 13.19 C 19.05 12.23 18.10 11.26 17.15 10.29 C 16.15 11.29 15.16 12.28 14.16 13.27 M 21.87 13.33 C 22.88 14.27 23.90 15.21 24.91 16.15 C 25.88 15.20 26.84 14.25 27.81 13.31 C 26.86 12.29 25.90 11.27 24.95 10.25 C 23.92 11.27 22.90 12.30 21.87 13.33 M 29.70 13.22 C 30.67 14.18 31.65 15.14 32.62 16.10 C 33.47 15.33 34.32 14.56 35.17 13.79 C 34.32 12.63 33.47 11.47 32.62 10.31 C 31.65 11.28 30.67 12.25 29.70 13.22 M 6.30 14.86 C 5.85 16.55 5.39 18.24 4.96 19.93 C 6.08 18.96 7.19 17.97 8.30 16.98 C 7.64 16.28 6.97 15.57 6.30 14.86 M 10.29 17.15 C 11.26 18.10 12.23 19.05 13.19 20.01 C 14.17 19.03 15.14 18.05 16.12 17.07 C 15.17 16.10 14.22 15.13 13.27 14.16 C 12.28 15.16 11.29 16.15 10.29 17.15 M 18.00 17.18 C 19.01 18.13 20.01 19.08 21.02 20.04 C 21.99 19.08 22.96 18.12 23.94 17.16 C 22.97 16.15 22.01 15.14 21.05 14.13 C 20.04 15.14 19.02 16.16 18.00 17.18 M 25.75 17.18 C 26.75 18.14 27.74 19.10 28.74 20.06 C 29.73 19.08 30.72 18.11 31.71 17.13 C 30.74 16.13 29.77 15.12 28.80 14.12 C 27.78 15.14 26.76 16.16 25.75 17.18 M 33.45 16.98 C 34.50 18.01 35.55 19.03 36.60 20.06 C 36.92 19.72 37.56 19.04 37.89 18.69 C 37.19 17.33 36.50 15.97 35.81 14.61 C 35.02 15.40 34.24 16.19 33.45 16.98 M 9.31 18.07 C 8.32 19.04 7.32 20.01 6.32 20.98 C 7.30 21.96 8.29 22.94 9.27 23.92 C 10.27 22.92 11.26 21.92 12.26 20.93 C 11.28 19.97 10.29 19.02 9.31 18.07 M 32.50 17.88 C 31.52 18.89 30.53 19.89 29.54 20.89 C 30.56 21.92 31.57 22.96 32.59 23.99 C 33.60 22.98 34.61 21.96 35.62 20.95 C 34.58 19.93 33.54 18.91 32.50 17.88 M 14.13 21.05 C 15.14 22.01 16.15 22.97 17.16 23.94 C 18.12 22.96 19.08 21.99 20.04 21.02 C 19.09 20.01 18.13 19.01 17.18 18.00 C 16.16 19.02 15.14 20.04 14.13 21.05 M 21.88 21.05 C 22.88 22.01 23.87 22.97 24.87 23.94 C 25.86 22.96 26.84 21.98 27.83 21.00 C 26.86 20.00 25.89 18.99 24.93 17.99 C 23.91 19.01 22.89 20.03 21.88 21.05 M 37.85 20.29 C 36.31 23.23 41.20 20.48 37.85 20.29 M 5.00 21.92 C 5.40 23.59 5.80 25.26 6.22 26.92 C 6.92 26.12 7.61 25.32 8.28 24.51 C 7.19 23.65 6.10 22.78 5.00 21.92 M 10.23 24.94 C 11.24 25.91 12.24 26.88 13.24 27.85 C 14.21 26.87 15.18 25.89 16.15 24.92 C 15.22 23.90 14.28 22.89 13.35 21.88 C 12.31 22.90 11.27 23.92 10.23 24.94 M 17.99 24.92 C 18.99 25.89 19.99 26.86 21.00 27.83 C 21.98 26.84 22.96 25.86 23.94 24.87 C 22.97 23.88 22.01 22.88 21.05 21.88 C 20.03 22.89 19.01 23.91 17.99 24.92 M 25.67 24.73 C 26.68 25.77 27.69 26.82 28.70 27.86 C 29.72 26.85 30.73 25.84 31.75 24.82 C 30.71 23.81 29.67 22.80 28.63 21.79 C 27.64 22.77 26.65 23.75 25.67 24.73 M 36.42 21.83 C 35.45 22.82 34.47 23.80 33.49 24.79 C 34.49 25.82 35.49 26.85 36.48 27.88 C 37.49 26.87 38.49 25.85 39.50 24.84 C 38.47 23.83 37.45 22.83 36.42 21.83 M 6.91 28.23 C 7.70 29.38 8.49 30.52 9.28 31.67 C 10.26 30.75 11.25 29.82 12.24 28.90 C 11.30 27.87 10.37 26.85 9.44 25.82 C 8.60 26.62 7.76 27.43 6.91 28.23 M 17.18 25.74 C 16.16 26.77 15.13 27.79 14.11 28.81 C 15.11 29.78 16.10 30.76 17.10 31.73 C 18.09 30.74 19.07 29.74 20.06 28.75 C 19.10 27.75 18.14 26.75 17.18 25.74 M 21.79 28.59 C 22.80 29.64 23.81 30.70 24.81 31.75 C 25.83 30.74 26.84 29.72 27.86 28.70 C 26.82 27.69 25.78 26.69 24.74 25.67 C 23.76 26.65 22.77 27.62 21.79 28.59 M 32.52 25.73 C 31.55 26.70 30.58 27.67 29.61 28.64 C 30.61 29.68 31.61 30.72 32.61 31.76 C 33.61 30.75 34.62 29.73 35.63 28.72 C 34.59 27.72 33.56 26.73 32.52 25.73 M 38.18 29.83 C 39.57 30.99 40.62 28.38 39.64 27.46 C 38.28 26.37 36.99 28.92 38.18 29.83 M 13.23 29.70 C 12.26 30.66 11.29 31.62 10.32 32.58 C 11.45 33.44 12.59 34.29 13.73 35.14 C 14.53 34.31 15.33 33.48 16.13 32.64 C 15.16 31.66 14.19 30.68 13.23 29.70 M 17.88 32.51 C 18.90 33.55 19.92 34.59 20.93 35.62 C 21.95 34.62 22.97 33.61 24.00 32.61 C 22.96 31.59 21.93 30.56 20.89 29.53 C 19.89 30.53 18.88 31.52 17.88 32.51 M 25.73 32.49 C 26.72 33.54 27.72 34.58 28.71 35.64 C 29.72 34.63 30.74 33.62 31.76 32.62 C 30.73 31.62 29.70 30.62 28.68 29.61 C 27.69 30.57 26.71 31.53 25.73 32.49 M 33.47 32.50 C 34.55 33.60 35.64 34.71 36.73 35.81 C 37.52 34.65 38.31 33.49 39.10 32.32 C 38.23 31.41 37.37 30.50 36.50 29.59 C 35.49 30.56 34.48 31.53 33.47 32.50 M 14.61 35.78 C 15.98 36.47 17.35 37.17 18.72 37.87 C 19.06 37.55 19.72 36.91 20.05 36.59 C 19.03 35.55 18.01 34.50 16.99 33.46 C 16.39 34.04 15.21 35.20 14.61 35.78 M 21.82 36.44 C 22.82 37.46 23.83 38.49 24.83 39.51 C 25.84 38.50 26.86 37.49 27.88 36.48 C 26.85 35.49 25.81 34.49 24.78 33.49 C 23.80 34.47 22.81 35.46 21.82 36.44 M 32.54 33.46 C 31.56 34.47 30.57 35.48 29.59 36.49 C 30.49 37.36 31.40 38.23 32.31 39.10 C 33.48 38.31 34.64 37.53 35.81 36.75 C 34.72 35.65 33.63 34.56 32.54 33.46 M 35.68 40.98 C 38.68 41.79 41.47 44.28 44.52 44.12 C 43.41 41.20 41.96 38.42 41.07 35.42 C 39.78 37.72 37.95 39.63 35.68 40.98 M 20.24 37.94 C 20.84 41.23 22.96 36.03 20.24 37.94 M 27.43 39.64 C 28.68 40.32 29.58 40.06 30.12 38.84 C 29.92 36.82 26.19 37.89 27.43 39.64 Z" />
<path fill="#008a4e" opacity="1.00" d=" M 20.07 52.70 C 20.59 49.92 21.71 46.47 24.95 45.94 C 29.27 44.36 34.18 48.45 33.27 53.00 C 32.89 57.62 27.19 59.95 23.36 57.61 C 25.65 56.43 28.81 56.45 30.37 54.14 C 31.71 51.18 28.95 46.98 25.59 47.55 C 22.89 48.08 21.70 50.82 20.07 52.70 Z" />
<path fill="#008a4e" opacity="1.00" d=" M 20.58 54.25 C 21.90 52.26 22.76 49.54 25.14 48.58 C 28.41 47.03 31.64 52.64 28.69 54.67 C 26.69 55.50 24.62 56.15 22.66 57.10 C 21.97 56.15 21.28 55.20 20.58 54.25 Z" />
</g>
</svg>
